<svg xmlns="http://www.w3.org/2000/svg" width="1024" height="1024" viewBox="0 0 1024 1024">
  <defs>
    <radialGradient id="felt" cx="50%" cy="35%" r="75%">
      <stop offset="0" stop-color="#1a8a6b"/>
      <stop offset="1" stop-color="#07382b"/>
    </radialGradient>
    <linearGradient id="ivory" x1="0" y1="0" x2="1" y2="1">
      <stop offset="0" stop-color="#fffef8"/>
      <stop offset="1" stop-color="#e6dbbb"/>
    </linearGradient>
  </defs>
  <rect x="62" y="62" width="900" height="900" rx="200" fill="url(#felt)"/>
  <g font-family="Helvetica Neue, Helvetica, Arial, sans-serif" font-weight="800" text-anchor="middle">
    <g transform="rotate(-12 330 540)">
      <rect x="190" y="330" width="280" height="380" rx="40" fill="#b9ad8b" transform="translate(0 16)"/>
      <rect x="190" y="330" width="280" height="380" rx="40" fill="url(#ivory)"/>
      <text x="330" y="535" font-size="210" fill="#d7263d">7</text>
      <circle cx="330" cy="620" r="42" fill="none" stroke="#d7263d" stroke-width="12" opacity=".3"/>
    </g>
    <g transform="rotate(4 512 470)">
      <rect x="372" y="260" width="280" height="380" rx="40" fill="#b9ad8b" transform="translate(0 16)"/>
      <rect x="372" y="260" width="280" height="380" rx="40" fill="url(#ivory)"/>
      <text x="512" y="465" font-size="210" fill="#1d6fd6">7</text>
      <circle cx="512" cy="550" r="42" fill="none" stroke="#1d6fd6" stroke-width="12" opacity=".3"/>
    </g>
    <g transform="rotate(14 700 540)">
      <rect x="560" y="330" width="280" height="380" rx="40" fill="#b9ad8b" transform="translate(0 16)"/>
      <rect x="560" y="330" width="280" height="380" rx="40" fill="url(#ivory)"/>
      <text x="700" y="535" font-size="210" fill="#f08a00">7</text>
      <circle cx="700" cy="620" r="42" fill="none" stroke="#f08a00" stroke-width="12" opacity=".3"/>
    </g>
  </g>
</svg>
